<svg t="1725285732040" class="icon" viewBox="0 0 1024 1024" version="1.1" xmlns="http://www.w3.org/2000/svg" p-id="38430" width="200" height="200"><path d="M64.512 10.24l368.2304 368.64a38.6048 38.6048 0 0 1 10.24 10.24l570.1632 570.1632a38.0928 38.0928 0 0 1-53.3504 54.272L758.272 812.032a470.016 470.016 0 0 1-245.76 71.68 463.1552 463.1552 0 0 1-219.136-56.2176A644.1984 644.1984 0 0 1 134.7584 706.56a849.92 849.92 0 0 1-96.5632-119.1936l-1.024-1.4336-1.9456-2.9696-1.9456-2.8672-0.9216-1.4336-1.8432-2.8672-1.8432-2.8672-1.7408-2.7648-1.7408-2.7648-1.7408-2.7648-1.6384-2.6624-1.6384-2.6624-1.6384-2.6624-0.8192-1.3312-1.536-2.56-0.7168-1.2288-1.536-2.56-1.2288-2.048-1.4336-2.4576-1.3312-2.3552-1.2288-2.2528-1.536-2.7648-1.1264-2.1504v-0.9216l-1.1264-2.1504a38.0928 38.0928 0 0 1 0-34.6112v-0.7168l0.6144-1.2288 0.9216-1.7408 1.1264-2.1504 1.1264-2.048 0.8192-1.4336 0.8192-1.536 1.3312-2.3552 1.4336-2.4576 1.2288-2.048 1.536-2.56 0.7168-1.2288 1.536-2.56 0.8192-1.3312 1.6384-2.6624 1.6384-2.6624 1.6384-2.6624 1.7408-2.7648 1.7408-2.7648 1.7408-2.7648 1.8432-2.8672 1.8432-2.8672 1.8432-2.8672 0.9216-1.4336 1.9456-2.9696 1.024-1.4336a849.92 849.92 0 0 1 96.5632-119.1936A716.8 716.8 0 0 1 204.8 258.7648L10.9568 64.9216a38.0928 38.0928 0 0 1 53.3504-54.272z m124.6208 364.6464a774.9632 774.9632 0 0 0-87.8592 108.544l-2.8672 4.3008-1.8432 2.8672-1.8432 2.7648-1.7408 2.7648-0.9216 1.3312-1.7408 2.6624-1.6384 2.6624-1.6384 2.6624-1.6384 2.56-1.536 2.56-1.536 2.56v1.6384l1.6384 2.6624 1.6384 2.6624 5.2224 8.2944 1.8432 2.8672 1.8432 2.8672 1.9456 2.9696 1.024 1.4336 1.9456 2.9696 1.9456 2.8672a774.9632 774.9632 0 0 0 87.8592 108.544 569.1392 569.1392 0 0 0 139.3664 106.8032 379.904 379.904 0 0 0 374.0672-3.7888l-93.2864-93.2864a180.6336 180.6336 0 0 1-249.2416-249.2416l-100.7616-100.7616a633.6512 633.6512 0 0 0-70.0416 62.2592zM512 145.1008a463.1552 463.1552 0 0 1 219.136 56.2176 644.1984 644.1984 0 0 1 158.208 120.9344 850.432 850.432 0 0 1 96.5632 119.1936l1.024 1.4336 1.9456 2.9696 1.9456 2.8672 1.8432 2.8672 1.8432 2.8672 1.8432 2.7648 0.9216 1.4336 1.7408 2.7648 1.7408 2.7648 1.6384 2.6624 0.8192 1.3312 1.6384 2.6624 1.536 2.56 0.8192 1.3312 1.536 2.56 1.536 2.56 1.7408 2.9696 0.9216 1.6384 1.3312 2.3552 1.2288 2.2528 1.2288 2.1504 1.3312 2.3552 1.536 2.8672v0.6144a38.0928 38.0928 0 0 1 0 34.6112v0.7168l-0.9216 1.8432-1.2288 2.1504-1.024 1.8432-1.1264 2.048-1.2288 2.1504-1.3312 2.2528-0.6144 1.1264-1.3312 2.2528-0.7168 1.1264-1.4336 2.3552-1.4336 2.3552-1.4336 2.4576-1.536 2.4576-1.536 2.4576-0.8192 1.2288-1.6384 2.56-0.8192 1.3312-1.6384 2.6624-0.8192 1.3312-1.7408 2.6624-1.7408 2.6624a862.8224 862.8224 0 0 1-73.9328 97.9968 38.0928 38.0928 0 0 1-57.344-50.0736 787.3536 787.3536 0 0 0 67.3792-89.3952l0.9216-1.4336 1.7408-2.7648 0.8192-1.3312 1.6384-2.6624 0.8192-1.3312 1.6384-2.56 0.8192-1.2288 1.536-2.56 1.536-2.4576 0.8192-1.4336v-0.8192l-1.6384-2.6624-1.6384-2.6624-4.3008-6.8608-1.8432-2.8672-1.8432-2.8672-0.9216-1.4336-1.9456-2.9696-1.9456-2.9696-2.048-2.9696-0.9216-1.3312a774.8608 774.8608 0 0 0-87.8592-108.544 569.1392 569.1392 0 0 0-139.3664-106.8032A387.3792 387.3792 0 0 0 512 221.184a369.9712 369.9712 0 0 0-43.008 2.4576 38.0928 38.0928 0 0 1-8.8064-75.5712A446.0544 446.0544 0 0 1 512 145.1008zM407.9616 510.5664a104.7552 104.7552 0 0 0 145.1008 96.256L416.1536 469.9136a103.8336 103.8336 0 0 0-8.192 40.5504z" fill="#2c2c2c" p-id="38431"></path></svg>