<?xml version="1.0" standalone="no"?><!DOCTYPE svg PUBLIC "-//W3C//DTD SVG 1.1//EN" "http://www.w3.org/Graphics/SVG/1.1/DTD/svg11.dtd"><svg t="1725435110212" class="icon" viewBox="0 0 1024 1024" version="1.1" xmlns="http://www.w3.org/2000/svg" p-id="12080" xmlns:xlink="http://www.w3.org/1999/xlink" width="200" height="200"><path d="M511.996587 1020.586667C231.707307 1020.586667 4.478293 792.85248 4.478293 512.006827 4.478293 231.154347 231.707307 3.413333 511.996587 3.413333c280.285867 0 507.52512 227.70688 507.52512 508.593494S792.292693 1020.586667 511.996587 1020.586667zM314.630827 447.832747l28.576426 314.8288c1.72032 19.135147 18.85184 34.819413 38.027947 34.819413h261.59104c19.131733 0 36.314453-15.670613 38.027947-34.819413l28.573013-314.8288A31.389013 31.389013 0 0 0 677.69344 413.013333h-331.32544c-17.33632-0.3072-31.645013 13.492907-31.952213 30.83264-0.023893 1.334613 0.037547 2.6624 0.18432 3.986774h0.03072z m406.688426-87.231147c0.034133-28.921173-23.394987-52.394667-52.30592-52.425387h-51.3536l-6.13376-44.004693c-2.000213-14.2848-15.387307-25.954987-29.774506-25.954987h-139.506347c-14.35648 0-27.777707 11.6736-29.78816 25.97888l-6.12352 43.922774h-51.264853c-28.928 0.023893-52.343467 23.497387-52.319574 52.40832v17.493333h418.512214l0.058026-17.41824z m-143.766186-87.37792l4.881066 34.94912h-140.875093l4.881067-34.94912h131.11296z m-135.314774 454.35904h-52.319573l-17.43872-244.657493h69.761707l-0.003414 244.657493z m104.635734 0H477.0816v-244.657493h69.758293l0.034134 244.657493z m87.200426 0h-52.319573v-244.657493h69.761707l-17.442134 244.657493z" p-id="12081" fill="#d81e06"></path></svg>