<svg t="1725269580919" class="icon" viewBox="0 0 1024 1024" version="1.1" xmlns="http://www.w3.org/2000/svg" p-id="25070" width="70" height="70"><path d="M962.559344 911.126652A213.643491 213.643491 0 1 0 788.246735 1000.72659a209.454403 209.454403 0 0 0 62.370867-9.541811 35.607248 35.607248 0 0 0-20.712713-68.189045 138.239906 138.239906 0 0 1-41.890881 6.283632 143.359902 143.359902 0 1 1 102.167203-43.287243 38.167247 38.167247 0 0 0 0 53.294509l71.912678 71.912679a35.607248 35.607248 0 0 0 80.269057 0 35.607248 35.607248 0 0 0 0-80.269057z" fill="#ffffff" p-id="25071"></path><path d="M1023.999302 563.432343V149.643534A148.479899 148.479899 0 0 0 875.053949 1.396363H148.945353A148.479899 148.479899 0 0 0 0 149.643534v726.108596A148.479899 148.479899 0 0 0 148.945353 1023.999302h404.246997a35.374521 35.374521 0 0 0 0-69.818134h-107.519927V651.635919a34.909067 34.909067 0 0 0-69.818134 0v302.545249H148.945353a77.963583 77.963583 0 0 1-77.730856-77.730856V149.643534A77.963583 77.963583 0 0 1 148.945353 71.912678H302.545248v293.701618l-120.785372 121.250827a35.374521 35.374521 0 0 0-13.265445 27.229072v186.181691a93.090846 93.090846 0 1 0 69.818134 0v-171.287156l124.276279-124.276279a34.909067 34.909067 0 0 0 9.541811-20.94544 15.825444 15.825444 0 0 0 0-4.654542 6.516359 6.516359 0 0 0 0-2.094544V71.912678h128.930822v169.425339a93.090846 93.090846 0 1 0 69.818134 0V71.912678h189.905325v306.501609a34.909067 34.909067 0 1 0 69.818134 0V71.912678h44.450879a77.963583 77.963583 0 0 1 77.730856 77.730856v415.417899a35.141794 35.141794 0 0 0 69.818134 0v-1.62909zM204.79986 810.355811a23.272711 23.272711 0 1 1 23.272712-23.272711 23.272711 23.272711 0 0 1-23.272712 23.272711z m333.730682-459.170596a23.272711 23.272711 0 1 1 23.272711-23.272711 23.272711 23.272711 0 0 1-23.272711 23.272711z" fill="#ffffff" p-id="25072"></path></svg>