<?xml version="1.0" standalone="no"?><!DOCTYPE svg PUBLIC "-//W3C//DTD SVG 1.1//EN" "http://www.w3.org/Graphics/SVG/1.1/DTD/svg11.dtd"><svg t="1725184708979" class="icon" viewBox="0 0 1078 1024" version="1.1" xmlns="http://www.w3.org/2000/svg" p-id="13178" xmlns:xlink="http://www.w3.org/1999/xlink" width="210.546875" height="200"><path d="M943.578537 24.97561h-31.469269v43.457561h31.469269c21.479024 0 40.96 19.480976 40.96 40.96v43.457561h43.457561v-43.457561c0-45.955122-38.462439-84.417561-84.417561-84.417561zM74.427317 920.600976v-43.457561H30.969756v43.457561c0 45.955122 38.462439 84.417561 84.417561 84.417561h31.469268v-43.457561h-31.469268c-21.978537 0-40.96-18.981463-40.96-40.96zM74.427317 109.393171c0-21.479024 19.480976-40.96 40.96-40.96h31.469268V24.97561h-31.469268C69.432195 24.97561 30.969756 63.438049 30.969756 109.393171v43.457561h43.457561v-43.457561zM197.307317 863.157073c-6.993171 0-14.485854-6.993171-14.485854-14.485853V181.322927c0-6.993171 6.993171-14.485854 14.485854-14.485854H864.156098c7.492683 0 14.485854 6.993171 14.485853 14.485854v334.673171h43.457561v-334.673171c0-31.469268-26.474146-57.943415-57.943414-57.943415H197.307317c-31.469268 0-57.943415 26.474146-57.943415 57.943415v669.346341c0 31.469268 26.474146 57.943415 57.943415 57.943415h334.673171v-45.955122h-334.673171z" fill="#ffffff" p-id="13179"></path><path d="M989.533659 769.24878c0-110.891707-88.913171-199.804878-199.804879-199.804878-26.474146 0-51.949268 4.995122-74.926829 14.485854l-131.871219-110.891707-305.701464 272.234146 28.971708 31.469268 276.729756-245.76 91.410731 75.426342c-50.950244 35.964878-84.417561 95.406829-84.417561 163.340488 0 110.891707 88.913171 199.804878 199.804878 199.804878 47.453659 0 90.91122-16.483902 124.878049-43.957073l75.426342 75.426341 30.470244-30.470244-75.426342-75.426341c27.972683-34.965854 44.456585-78.423415 44.456586-125.877074z m-199.804879 153.849757c-86.915122 0-156.347317-69.931707-156.347317-156.347317v-0.499513c0-86.41561 70.43122-155.847805 156.347317-155.847805 86.915122 0 156.347317 69.931707 156.347318 156.347318s-69.931707 156.347317-156.347318 156.347317z" fill="#ffffff" p-id="13180"></path><path d="M661.853659 769.24878h43.457561v-0.499512c0-47.453659 38.961951-86.41561 86.915121-85.916097V639.37561h-0.999024c-71.929756 0-129.373659 58.442927-129.373658 129.87317zM281.225366 374.134634c0 43.457561 35.964878 79.422439 79.422439 79.422439S440.070244 419.590244 440.070244 374.134634c0-43.457561-35.964878-79.422439-79.422439-79.422439-42.958049 0-79.422439 35.964878-79.422439 79.422439z m115.886829 0c0 19.480976-16.983415 35.964878-35.964878 35.964878-18.981463 0-35.964878-16.983415-35.964878-35.964878 0-18.981463 16.983415-35.964878 35.964878-35.964878 18.981463 0 35.964878 16.983415 35.964878 35.964878zM491.020488 306.700488h219.285853v43.457561H491.020488zM491.020488 383.625366h127.37561v43.457561H491.020488z" fill="#ffffff" p-id="13181"></path></svg>