<?xml version="1.0" standalone="no"?><!DOCTYPE svg PUBLIC "-//W3C//DTD SVG 1.1//EN" "http://www.w3.org/Graphics/SVG/1.1/DTD/svg11.dtd"><svg t="1725265797681" class="icon" viewBox="0 0 1024 1024" version="1.1" xmlns="http://www.w3.org/2000/svg" p-id="37231" xmlns:xlink="http://www.w3.org/1999/xlink" width="200" height="200"><path d="M512.032002 744.657459c25.726392 0 46.525092 20.862696 46.525092 46.589088v186.164365a46.525092 46.525092 0 0 1-93.050184 0v-186.228361c0-25.662396 20.7987-46.525092 46.525092-46.525092z" fill="#FFD877" p-id="37232"></path><path d="M347.434289 676.565715a46.525092 46.525092 0 0 1 0 65.787888l-131.575776 131.639772a46.525092 46.525092 0 1 1-65.851884-65.851884L281.646401 676.565715a46.525092 46.525092 0 0 1 65.787888 0z" fill="#FFD367" p-id="37233"></path><path d="M742.417603 676.565715l131.639772 131.575776a46.525092 46.525092 0 0 1-65.851884 65.851884L676.629715 742.353603a46.525092 46.525092 0 0 1 65.787888-65.787888z" fill="#FFDD88" p-id="37234"></path><path d="M232.753457 465.44291a46.525092 46.525092 0 1 1 0 93.050184H46.589092a46.525092 46.525092 0 1 1 0-93.050184h186.228361z" fill="#FFCA46" p-id="37235"></path><path d="M977.474912 465.44291a46.525092 46.525092 0 0 1 0 93.050184h-186.228361a46.525092 46.525092 0 1 1 0-93.050184h186.228361z" fill="#FFE5A4" p-id="37236"></path><path d="M874.057375 149.942629a46.525092 46.525092 0 0 1 0 65.851884L742.417603 347.370289A46.525092 46.525092 0 0 1 676.629715 281.582401l131.575776-131.639772a46.525092 46.525092 0 0 1 65.851884 0z" fill="#FFEFC6" p-id="37237"></path><path d="M215.858513 149.942629L347.434289 281.582401A46.525092 46.525092 0 1 1 281.646401 347.370289L150.006629 215.794513a46.525092 46.525092 0 0 1 65.851884-65.851884z" fill="#FFC53F" p-id="37238"></path><path d="M512.032002 0c25.726392 0 46.525092 20.862696 46.525092 46.525092v186.228361a46.525092 46.525092 0 1 1-93.050184 0V46.461096C465.50691 20.862696 486.30561 0 512.032002 0z" fill="#FFBE2A" p-id="37239"></path></svg>