<svg t="1725268307993" class="icon" viewBox="0 0 1024 1024" version="1.1" xmlns="http://www.w3.org/2000/svg" p-id="17318" width="200" height="200"><path d="M808.1 387.8C789 241.4 663.5 128 512 128S235 241.4 215.9 387.8C117.3 406.6 42.7 493.4 42.7 597.3c0 117.6 95.7 213.3 213.3 213.3 23.6 0 42.7-19.1 42.7-42.7s-19.1-42.7-42.7-42.7c-70.6 0-128-57.4-128-128s57.4-128 128-128c23.6 0 42.7-19.1 42.7-42.7 0-117.6 95.7-213.3 213.3-213.3S725.3 309 725.3 426.7c0 23.6 19.1 42.7 42.7 42.7 70.6 0 128 57.4 128 128s-57.4 128-128 128c-23.6 0-42.7 19.1-42.7 42.7s19.1 42.7 42.7 42.7c117.6 0 213.3-95.7 213.3-213.3 0-104.1-74.6-190.9-173.2-209.7z" fill="#2c2c2c" p-id="17319"></path><path d="M542.2 883.5c-16.7 16.7-43.7 16.7-60.3 0L361.1 762.8c-16.7-16.6-16.7-43.7 0-60.3 16.7-16.7 43.7-16.7 60.3 0l47.9 47.8V436c0-23.6 19.1-42.7 42.7-42.7s42.7 19.1 42.7 42.7v314.3l47.8-47.8c8.3-8.3 19.2-12.5 30.2-12.5s21.8 4.2 30.2 12.5c16.7 16.7 16.7 43.7 0 60.3L542.2 883.5z" fill="#2c2c2c" p-id="17320"></path></svg>