<svg t="1725266876055" class="icon" viewBox="0 0 1024 1024" version="1.1" xmlns="http://www.w3.org/2000/svg" p-id="15246" width="200" height="200"><path d="M868.6592 476.9792m0 40.96l0 0q0 40.96-40.96 40.96l-573.44 0q-40.96 0-40.96-40.96l0 0q0-40.96 40.96-40.96l573.44 0q40.96 0 40.96 40.96Z" fill="#000000" p-id="15247"></path><path d="M215.79776 519.00416l203.22304 203.22304a40.96 40.96 0 0 1-57.91744 57.91744L129.39264 548.43392a40.96 40.96 0 0 1-0.45056-58.44992L360.6528 258.31424a40.96 40.96 0 0 1 57.91744 57.91744l-202.77248 202.79296z" fill="#000000" p-id="15248"></path></svg>