<?xml version="1.0" standalone="no"?><!DOCTYPE svg PUBLIC "-//W3C//DTD SVG 1.1//EN" "http://www.w3.org/Graphics/SVG/1.1/DTD/svg11.dtd"><svg t="1725183563888" class="icon" viewBox="0 0 1024 1024" version="1.1" xmlns="http://www.w3.org/2000/svg" p-id="8326" width="200" height="200" xmlns:xlink="http://www.w3.org/1999/xlink"><path d="M851.456 114.176H172.544C111.104 114.176 61.44 163.84 60.928 225.28v573.44c0 61.44 49.664 111.104 111.616 111.616h678.912c61.44 0 111.104-49.664 111.616-111.616V225.28c-0.512-61.44-50.176-111.104-111.616-111.104zM172.544 839.168c-3.072 0-6.144-0.512-9.216-1.024l260.608-337.408 116.736 148.992c1.536 1.536 2.56 3.072 4.096 4.608l1.536 1.536c1.024 0.512 1.536 1.536 2.56 2.048 9.728 7.68 22.016 12.288 34.816 12.288 8.192 0 16.384-2.048 23.552-5.632 7.168-3.584 13.824-8.704 18.944-15.36l45.056-58.368 193.024 245.76c-4.096 1.536-8.704 2.56-12.8 2.56H172.544z m719.36-83.456L721.92 538.624c-5.12-6.656-11.264-11.776-17.92-15.872-1.024-0.512-1.536-1.024-2.56-1.536-1.536-1.024-3.072-1.536-4.608-2.56-1.024-0.512-1.536-0.512-2.56-1.024-1.536-0.512-3.584-1.536-5.12-1.536-1.024-0.512-2.56-0.512-3.584-1.024-1.024 0-2.048-0.512-3.072-0.512h-1.024c-1.024 0-2.048-0.512-3.072-0.512h-10.752c-1.024 0-2.048 0-3.584 0.512-1.024 0-2.56 0.512-3.584 0.512-0.512 0-1.536 0-2.56 0.512-1.024 0-1.536 0.512-2.56 0.512-1.536 0.512-3.072 1.024-5.12 1.536-1.024 0.512-2.048 0.512-2.56 1.024-1.024 0.512-1.536 0.512-2.56 1.024s-1.536 0.512-2.56 1.024c-4.096 2.048-7.68 4.608-11.776 7.168-4.096 3.072-7.68 7.168-11.264 11.264l-37.376 48.128-108.032-138.752c-12.288-15.36-30.72-24.576-50.688-24.576-19.968 0-38.4 9.216-50.688 25.088l-241.152 311.808V225.28v-4.096c0-2.56 1.024-5.12 1.536-7.68 5.12-16.384 20.48-28.16 38.4-28.672h678.912c17.92 0 33.28 11.776 38.4 28.672 1.024 2.56 1.536 5.12 1.536 7.68V755.712z" p-id="8327" fill="#8a8a8a"></path><path d="M798.208 276.48c-10.752-10.752-23.552-18.944-37.888-24.576-3.072-1.024-6.656-2.048-9.728-3.072-8.192-2.048-17.408-3.584-26.112-3.584-57.856 0-104.96 47.104-104.96 104.96s47.104 104.96 104.96 104.96c9.216 0 17.92-1.024 26.112-3.072 3.584-1.024 6.656-2.048 9.728-3.072 4.096-1.536 8.192-3.072 12.288-5.632 1.536-1.024 3.072-1.536 4.608-2.56 9.216-5.632 17.92-12.288 25.088-20.48 1.024-1.536 2.56-2.56 3.584-4.096l4.608-6.144c3.072-4.096 5.632-8.192 7.68-12.8 1.024-2.048 2.048-4.608 3.072-6.656 1.024-2.048 1.536-4.096 2.56-6.144 1.024-2.048 1.536-4.096 2.048-6.656 0.512-2.048 1.024-4.608 1.536-6.656 1.536-6.656 2.048-13.824 2.048-20.992 0-7.168-0.512-14.336-2.048-20.992-5.12-19.968-14.848-38.4-29.184-52.736z m-48.64 95.232c-0.512 1.024-1.536 1.536-2.048 2.048-1.024 1.024-1.536 1.536-2.56 2.048-1.024 0.512-1.536 1.536-2.56 2.048-2.56 2.048-5.632 3.072-8.704 4.096-3.072 1.024-6.656 1.536-9.728 1.536-5.632 0-11.264-1.536-15.872-4.096-1.024-0.512-1.536-1.024-2.56-1.536-1.024-0.512-1.536-1.024-2.56-2.048-1.024-0.512-1.536-1.536-2.56-2.048l-2.048-2.048c-0.512-1.024-1.536-1.536-2.048-2.56-0.512-1.024-1.024-2.048-1.536-2.56l-1.536-3.072c-0.512-1.024-1.024-2.048-1.024-3.072-0.512-1.024-0.512-2.048-1.024-3.072 0-1.024-0.512-1.536-0.512-2.56v-0.512-1.024-3.072-2.56-1.536-1.536c0-1.536 0.512-2.56 1.024-3.584 0-1.024 0.512-1.536 1.024-2.56 0.512-1.536 1.536-3.072 2.56-4.608 0.512-1.024 1.024-1.536 1.536-2.048 6.144-8.704 15.872-13.824 27.136-13.824 11.264 0 20.992 5.632 27.136 13.824 0.512 0.512 1.024 1.536 1.536 2.048 1.024 1.536 1.536 3.072 2.56 4.608 0.512 1.024 0.512 1.536 1.024 2.56s0.512 2.56 1.024 3.584V353.792c0 0.512 0 1.536-0.512 2.048v1.024c0 0.512-0.512 1.536-0.512 2.048v1.024c0 1.024-0.512 1.536-1.024 2.56 0 0.512-0.512 1.024-1.024 1.536v0.512c-0.512 0.512-0.512 1.024-1.024 1.536-1.024 2.56-2.56 4.096-3.584 5.632z" p-id="8328" fill="#8a8a8a"></path></svg>