<svg t="1725285781252" class="icon" viewBox="0 0 1024 1024" version="1.1" xmlns="http://www.w3.org/2000/svg" p-id="38648" width="200" height="200"><path d="M512 179.2c184.2688 0 351.488 105.984 501.6576 318.0032a25.6 25.6 0 0 1 1.8688 26.5472l-1.8688 3.072-8.064 11.2384C857.5232 742.5536 692.992 844.8 512 844.8 327.7312 844.8 160.512 738.816 10.3424 526.7968a25.6 25.6 0 0 1-1.8688-26.5472l1.8688-3.072 8.064-11.2384C166.4768 281.4464 331.008 179.2 512 179.2z m0 76.8c-144.6912 0-279.9872 78.848-407.6288 243.2768l-9.728 12.6976 1.28 1.7152c127.6672 168.6272 262.8864 251.0592 407.3984 254.208L512 768c144.6912 0 279.9872-78.848 407.6288-243.2768l9.7024-12.7232-1.2288-1.6896c-127.6928-168.6272-262.912-251.0592-407.424-254.208L512 256z" fill="#2c2c2c" p-id="38649"></path><path d="M512 358.4a153.6 153.6 0 1 1 0 307.2 153.6 153.6 0 0 1 0-307.2z m0 76.8a76.8 76.8 0 1 0 0 153.6 76.8 76.8 0 0 0 0-153.6z" fill="#2c2c2c" p-id="38650"></path></svg>