<svg t="1725473600713" class="icon" viewBox="0 0 1024 1024" version="1.1" xmlns="http://www.w3.org/2000/svg" p-id="28751" width="200" height="200"><path d="M982.337829 836.264229h-34.289372V153.6c0-18.8416-15.367314-34.135771-34.304-34.135771H159.2832V34.135771c0-18.8416-15.36-34.135771-34.289371-34.135771-18.929371 0-34.304 15.286857-34.304 34.135771v85.328458H56.393143c-18.929371 0-34.289371 15.286857-34.289372 34.135771 0 18.8416 15.36 34.135771 34.289372 34.135771H90.697143V870.4c0 18.8416 15.36 34.135771 34.296686 34.135771h754.468571v85.328458c0 18.8416 15.36 34.135771 34.296686 34.135771 18.929371 0 34.296686-15.286857 34.296685-34.135771v-85.328458h34.289372c18.929371 0 34.296686-15.286857 34.296686-34.135771 0-18.8416-15.36-34.135771-34.296686-34.135771z m-823.061943 0V187.735771h720.1792v648.528458H159.275886z" fill="#2c2c2c" p-id="28752"></path><path d="M268.024686 362.3424c0 37.376 30.749257 67.664457 68.681143 67.664457 37.9392 0 68.695771-30.295771 68.695771-67.664457 0-37.376-30.756571-67.664457-68.688457-67.664457-37.9392 0-68.688457 30.295771-68.688457 67.664457z m548.498285 364.668343L714.554514 458.686171c-2.545371-6.670629-8.3456-11.044571-15.696457-11.8272-7.336229-0.782629-13.9776 2.296686-17.978514 8.265143l-115.346286 173.487543c-5.258971 7.8848-15.630629 10.656914-24.356571 6.495086L343.625143 540.562286c-8.704-4.169143-19.0976-1.404343-24.334629 6.473143l-117.321143 176.420571c-3.832686 5.778286-4.074057 12.544-0.658285 18.549029 3.423086 5.997714 9.501257 9.4208 16.603428 9.4208h580.893257c6.363429 0 11.812571-2.720914 15.469715-7.767772 3.642514-5.039543 4.432457-10.898286 2.2528-16.647314z" fill="#2c2c2c" p-id="28753"></path></svg>