<?xml version="1.0" standalone="no"?><!DOCTYPE svg PUBLIC "-//W3C//DTD SVG 1.1//EN" "http://www.w3.org/Graphics/SVG/1.1/DTD/svg11.dtd"><svg t="1725265092372" class="icon" viewBox="0 0 1024 1024" version="1.1" xmlns="http://www.w3.org/2000/svg" p-id="29493" xmlns:xlink="http://www.w3.org/1999/xlink" width="200" height="200"><path d="M420.559974 72.98601l-54.855 0 0 774.336c-52.455014-69.163008-121.619046-123.762995-201.120051-157.052006l0 61.968c85.838029 41.401958 156.537958 111.337984 201.120051 198.221005l0 0.208 54.855 0 0-13.047c0.005018-0.00297 0.010035-0.005018 0.01495-0.007987-0.005018-0.010035-0.010035-0.019968-0.01495-0.030003L420.559974 72.986zM658.264986 73.385984l0-0.4L603.41 72.985984l0 877.68 54.855 0L658.265 176.524c52.457984 69.178982 121.632051 123.790029 201.149952 157.078016l0-61.961C773.560013 230.238003 702.853018 160.287027 658.264986 73.385984z" p-id="29494" fill="#2c2c2c"></path></svg>