<svg t="1725729042954" class="icon" viewBox="0 0 1024 1024" version="1.1" xmlns="http://www.w3.org/2000/svg" p-id="58169" data-spm-anchor-id="a313x.search_index.0.i150.7bc23a81d0Zs18" width="200" height="200"><path d="M765.75 785.56l-198.1 124.13a69.15 69.15 0 0 1-73.43 0l-198.1-124.13a68.37 68.37 0 0 1-68.17-68.17V172a68.37 68.37 0 0 1 68.17-68.17h469.63A68.37 68.37 0 0 1 833.93 172v545.39a68.37 68.37 0 0 1-68.18 68.17z" fill="#FA2A2D" p-id="58170" data-spm-anchor-id="a313x.search_index.0.i147.7bc23a81d0Zs18" class=""></path><path d="M765.75 103.83h-64.38A68.37 68.37 0 0 1 769.54 172v545.38a68.37 68.37 0 0 1-68.17 68.17l-198.1 124.13c-1.48 0.93-3 1.79-4.52 2.59a69.14 69.14 0 0 0 68.91-2.59l198.1-124.13a68.37 68.37 0 0 0 68.17-68.17V172a68.37 68.37 0 0 0-68.18-68.17z" fill="#fc4a4a" p-id="58171" data-spm-anchor-id="a313x.search_index.0.i149.7bc23a81d0Zs18" class=""></path><path d="M500.004972 713.553767m-25.141405 12.948674a28.28 28.28 0 1 0 50.282809-25.897348 28.28 28.28 0 1 0-50.282809 25.897348Z" fill="#ffffff" p-id="58172" data-spm-anchor-id="a313x.search_index.0.i152.7bc23a81d0Zs18" class=""></path><path d="M733.56 98.15H263.93A73.94 73.94 0 0 0 190.07 172v545.39a74 74 0 0 0 72.19 73.84L459 914.51a75.27 75.27 0 0 0 79.46 0l196.76-123.29a74 74 0 0 0 72.19-73.84V172a73.94 73.94 0 0 0-73.85-73.85z m62.49 619.23a62.56 62.56 0 0 1-62.49 62.49h-1.63l-199.48 125a63.84 63.84 0 0 1-67.4 0l-199.48-125h-1.63a62.56 62.56 0 0 1-62.49-62.49V172a62.56 62.56 0 0 1 62.49-62.49h469.62A62.56 62.56 0 0 1 796.05 172z" fill="#fe7d7d" p-id="58173" data-spm-anchor-id="a313x.search_index.0.i151.7bc23a81d0Zs18" class=""></path></svg>