<?xml version="1.0" standalone="no"?><!DOCTYPE svg PUBLIC "-//W3C//DTD SVG 1.1//EN" "http://www.w3.org/Graphics/SVG/1.1/DTD/svg11.dtd"><svg t="1725177780300" class="icon" viewBox="0 0 1024 1024" version="1.1" xmlns="http://www.w3.org/2000/svg" p-id="17773" xmlns:xlink="http://www.w3.org/1999/xlink" width="200" height="200"><path d="M604.745143 0a119.076571 119.076571 0 0 1 113.810286 83.748571h82.578285a122.806857 122.806857 0 0 1 122.88 120.612572v696.978286c0 67.072-53.833143 121.563429-120.832 122.660571H159.451429A122.733714 122.733714 0 0 1 36.571429 903.387429V206.409143c0-67.072 53.906286-121.563429 120.832-122.660572H242.102857A119.076571 119.076571 0 0 1 355.84 0h248.905143zM242.102857 154.038857H159.451429a52.516571 52.516571 0 0 0-52.589715 51.419429v695.881143c0 28.672 23.04 51.931429 51.638857 52.443428h642.56a52.516571 52.516571 0 0 0 52.662858-51.492571V206.336a52.443429 52.443429 0 0 0-51.712-52.297143H718.555429A119.076571 119.076571 0 0 1 604.818286 237.714286H355.913143a119.076571 119.076571 0 0 1-113.883429-83.748572z m461.897143 238.226286a35.108571 35.108571 0 0 1 0 49.737143l-275.456 275.017143a35.254857 35.254857 0 0 1-48.566857 1.170285 35.401143 35.401143 0 0 1-3.803429-2.925714L257.462857 608.548571a35.108571 35.108571 0 1 1 47.030857-52.224l97.572572 87.771429 252.123428-251.830857a35.254857 35.254857 0 0 1 49.737143 0zM604.745143 70.217143H355.84a48.64 48.64 0 1 0 0 97.28h248.905143a48.64 48.64 0 1 0 0-97.28z" p-id="17774"></path></svg>