<?xml version="1.0" standalone="no"?><!DOCTYPE svg PUBLIC "-//W3C//DTD SVG 1.1//EN" "http://www.w3.org/Graphics/SVG/1.1/DTD/svg11.dtd"><svg t="1725265726132" class="icon" viewBox="0 0 1025 1024" version="1.1" xmlns="http://www.w3.org/2000/svg" p-id="35577" xmlns:xlink="http://www.w3.org/1999/xlink" width="200.1953125" height="200"><path d="M821.83 489.54h44.29c15.57 0 28.2 12.62 28.2 28.2 0 15.57-12.62 28.2-28.2 28.2h-44.29c-7.48 0-14.65-2.97-19.94-8.26a28.194 28.194 0 0 1-8.26-19.94 28.143 28.143 0 0 1 8.25-19.94c5.3-5.29 12.47-8.26 19.95-8.26z m-72.31 198.03l31.32 31.32c11.01 11.01 11.01 28.87 0 39.88-11.01 11.01-28.86 11.01-39.88 0l-31.32-31.32c-11.01-11.01-11.01-28.87 0-39.88 11.02-11.02 28.87-11.02 39.88 0zM539.85 757.9c7.48 0 14.65 2.97 19.94 8.25a28.194 28.194 0 0 1 8.26 19.94v44.29c0 15.58-12.62 28.2-28.2 28.2-15.57 0-28.2-12.62-28.2-28.2V786.1c0-7.48 2.97-14.65 8.26-19.94a28.194 28.194 0 0 1 19.94-8.26z m240.99-441.3l-31.31 31.32a28.228 28.228 0 0 1-27.24 7.3 28.213 28.213 0 0 1-19.94-19.94 28.21 28.21 0 0 1 7.3-27.23l31.31-31.32c11.01-11.01 28.87-11.01 39.88 0 11.01 11.01 11.01 28.86 0 39.87z m-333.1 302.49l71.51-71.55a60.233 60.233 0 0 0 17.64-42.6V333.93c0.1-20.26 16.55-36.63 36.81-36.63s36.71 16.37 36.81 36.63v200.29c0 15.87-6.26 31.1-17.42 42.38-31.1 31.43-62.2 62.86-93.28 94.3-14.32 14.48-37.66 14.52-52.06 0.13a36.725 36.725 0 0 1-10.76-25.97 36.639 36.639 0 0 1 10.75-25.97z m-21.57 20.76" fill="#333333" p-id="35578"></path><path d="M563.15 92.17c0 20.82 15.75 38.35 36.48 40.33 199.29 19.06 354.21 192.63 343.22 399.22-10.25 192.63-166 348.57-358.63 359.02-201.73 10.95-371.96-136.4-397.81-328.84l29.09 28.69c15.93 15.71 41.55 15.62 57.38-0.2a40.73 40.73 0 0 0 11.93-28.79c0-10.79-4.29-21.15-11.93-28.79L170.8 430.76c-15.28-15.28-40.06-15.3-55.36-0.04L12.94 532.96c-15.39 15.9-15.19 41.21 0.44 56.86 15.64 15.66 40.94 15.89 56.86 0.52l33.83-33.83c22.91 233.15 220.04 415.96 459.08 415.96 254.39 0 461.39-206.99 461.39-461.4-0.02-239.52-183.47-437.02-417.23-459.33-23.7-2.27-44.16 16.6-44.16 40.43z m0 0" fill="#333333" p-id="35579"></path></svg>